{"title":"Suits.s06e10.720p.hdtv.x265-killers[GreatIndiaRipper]","uid":15847383,"size":164539578,"categoryP":"video","categoryS":"tv_shows","magnet":"?xt=urn:btih:511132367ca16a95547c4d79ec92d40ffd9158a6&amp;dn=Suits.s06e10.720p.hdtv.x265-killers%5BGreatIndiaRipper%5D&amp;tr=udp%3A%2F%2Ftracker.leechers-paradise.org%3A6969&amp;tr=udp%3A%2F%2Fzer0day.ch%3A1337&amp;tr=udp%3A%2F%2Fopen.demonii.com%3A1337&amp;tr=udp%3A%2F%2Ftracker.coppersurfer.tk%3A6969&amp;tr=udp%3A%2F%2Fexodus.desync.com%3A6969","seeders":5,"leechers":0,"uploader":"greatindiaripper","files":3,"time":1474117923,"description":"General\r\n\r\nFormat                      : Matroska\r\nFormat version              : Version 4 / Version 2\r\nFile size                   : 156 MiB\r\nDuration                    : 42 min\r\nOverall bit rate            : 514 kb/s\r\nMovie name                  : Suits.s06e10.720p.hdtv.x265-killers[GreatIndiaRipper]\r\n\r\n\r\nVideo\r\nID                          : 1\r\nFormat                      : HEVC\r\nFormat/Info                 : High Efficiency Video Coding\r\nFormat profile              :   @Main\r\nCodec ID                    : V_MPEGH/ISO/HEVC\r\nDuration                    : 42 min\r\nBit rate                    : 399 kb/s\r\nWidth                       : 1 280 pixels\r\nHeight                      : 718 pixels\r\nDisplay aspect ratio        : 16:9\r\nFrame rate mode             : Constant\r\nFrame rate                  : 23.976 (24000/1001) FPS\r\nColor space                 : YUV\r\nChroma subsampling          : 4:2:0\r\nBit depth                   : 8 bits\r\nBits/(Pixel*Frame)          : 0.018\r\nStream size                 : 122 MiB (78%)\r\nTitle                       : Suits.s06e10.720p.hdtv.x265-killers[GreatIndiaRipper]\r\n\r\n\r\nAudio\r\nID                          : 2\r\nFormat                      : AAC\r\nFormat/Info                 : Advanced Audio Codec\r\nFormat profile              : LC\r\nCodec ID                    : A_AAC\r\nDuration                    : 42 min\r\nBit rate                    : 112 kb/s\r\nChannel(s)                  : 2 channels\r\nChannel positions           : Front: L R\r\nSampling rate               : 48.0 kHz\r\nFrame rate                  : 46.875 FPS (1024 spf)\r\nCompression mode            : Lossy\r\nDelay relative to video     : 6 ms\r\nStream size                 : 34.2 MiB (22%)\r\nTitle                       : Suits.s06e10.720p.hdtv.x265-killers[GreatIndiaRipper]\r\nDefault                     : Yes\r\nForced                      : No","torrent":{"xt":"urn:btih:511132367ca16a95547c4d79ec92d40ffd9158a6","amp;dn":"Suits.s06e10.720p.hdtv.x265-killers%5BGreatIndiaRipper%5D","amp;tr":["udp%3A%2F%2Ftracker.leechers-paradise.org%3A6969","udp%3A%2F%2Fzer0day.ch%3A1337","udp%3A%2F%2Fopen.demonii.com%3A1337","udp%3A%2F%2Ftracker.coppersurfer.tk%3A6969","udp%3A%2F%2Fexodus.desync.com%3A6969"],"infoHash":"511132367ca16a95547c4d79ec92d40ffd9158a6","infoHashBuffer":{"type":"Buffer","data":[81,17,50,54,124,161,106,149,84,124,77,121,236,146,212,15,253,145,88,166]},"announce":[],"urlList":[]}}